<svg xmlns="http://www.w3.org/2000/svg" width="192" height="80" fill="none"><g fill="#fff" clip-path="url(#a)"><path d="m22.99 45.9.152 19.982c.012 1.6.041 2.605.087 3.015a1.266 1.266 0 0 0 .527.945c.5.261 1.066.371 1.628.316h.438l.008.84-8 .06-.007-.84h.512a3 3 0 0 0 1.559-.314 1.2 1.2 0 0 0 .551-.852 28.93 28.93 0 0 0 .067-3.144l-.112-14.8a6.347 6.347 0 0 0-.442-2.964c-.282-.407-.966-.606-2.051-.6l-.006-.84c.88-.02 1.756-.112 2.62-.276a9.574 9.574 0 0 0 2.069-.527h.4ZM27.745 63.478A7.818 7.818 0 0 1 30 57.715a8.106 8.106 0 0 1 11.344-.076 7.824 7.824 0 0 1 2.344 5.72A7.705 7.705 0 0 1 41.4 69.32a8.01 8.01 0 0 1-5.627 2.207 7.902 7.902 0 0 1-5.651-2.158 7.746 7.746 0 0 1-2.377-5.89Zm3.032.068c.02 2.655.466 4.511 1.339 5.57a4.42 4.42 0 0 0 3.647 1.572 4.4 4.4 0 0 0 3.65-1.627c.838-1.071 1.247-2.935 1.228-5.59-.021-2.63-.455-4.502-1.3-5.616a4.307 4.307 0 0 0-3.687-1.655A4.322 4.322 0 0 0 32 57.9c-.834 1.121-1.242 3.003-1.223 5.646ZM57.836 57.114a4.328 4.328 0 0 1 3.128-1.779 1.864 1.864 0 0 1 1.365.466 1.43 1.43 0 0 1 .492 1.037c.006.804-.356 1.209-1.087 1.214a1.244 1.244 0 0 1-1.047-.742c-.272-.459-.553-.69-.845-.688a2.258 2.258 0 0 0-1.527.963c.624.941.962 2.042.973 3.171a5.5 5.5 0 0 1-1.541 3.883c-1.04 1.141-2.8 1.764-5.283 1.868-2.58.104-3.868.637-3.861 1.6.004.45.299.764.884.942 1.188.27 2.402.407 3.62.411 1.56.03 3.116.205 4.644.523a4.788 4.788 0 0 1 1.649 8.49A9.332 9.332 0 0 1 53.735 80a9.947 9.947 0 0 1-5.454-1.275 3.865 3.865 0 0 1-2.07-3.308 2.788 2.788 0 0 1 .57-1.832 2.029 2.029 0 0 1 1.658-.725 1.5 1.5 0 0 1 .53.088 3.86 3.86 0 0 0-1.113 2.64 3.133 3.133 0 0 0 1.527 2.644 7.877 7.877 0 0 0 4.51 1.018 7.03 7.03 0 0 0 4.147-1.1 3.235 3.235 0 0 0 1.468-2.75 2.707 2.707 0 0 0-1.352-2.565c-1.511-.6-3.13-.885-4.756-.835-2.618-.09-4.318-.4-5.1-.93a2.358 2.358 0 0 1-1.185-2.018c-.012-1.596 1.095-2.61 3.321-3.04a7.816 7.816 0 0 1-2.636-2.32 5.189 5.189 0 0 1-.9-2.935 4.999 4.999 0 0 1 1.77-3.894 6.206 6.206 0 0 1 4.253-1.63 6.473 6.473 0 0 1 4.913 1.881Zm-8.189 4.043a5.132 5.132 0 0 0 .993 3.443 3.24 3.24 0 0 0 4.851-.028 5.581 5.581 0 0 0 .966-3.779c-.013-1.8-.375-3.04-1.086-3.718a3.365 3.365 0 0 0-2.4-1.006 2.825 2.825 0 0 0-2.511 1.281 6.914 6.914 0 0 0-.813 3.807ZM63.983 63.2a7.809 7.809 0 0 1 2.258-5.761 8.1 8.1 0 0 1 11.343-.078 7.83 7.83 0 0 1 2.344 5.719 7.7 7.7 0 0 1-2.294 5.963 8.006 8.006 0 0 1-5.626 2.206 7.9 7.9 0 0 1-5.652-2.15 7.743 7.743 0 0 1-2.373-5.9Zm3.033.069c.02 2.655.466 4.512 1.338 5.57a4.963 4.963 0 0 0 7.3-.055c.839-1.07 1.248-2.934 1.228-5.59-.021-2.63-.455-4.502-1.3-5.615a4.848 4.848 0 0 0-7.333.045c-.843 1.124-1.254 3.007-1.233 5.649v-.004ZM87.45 54.486l.081 10.756c.012 1.644.045 2.68.1 3.107a1.34 1.34 0 0 0 .554.975c.517.268 1.1.381 1.679.326h.4l.007.867-8.307.062-.007-.867.641-.005a2.68 2.68 0 0 0 1.739-.4 1.5 1.5 0 0 0 .464-.927c.042-.358.056-1.397.043-3.118L84.8 60.59a12.087 12.087 0 0 0-.278-3.313 1.244 1.244 0 0 0-.686-.749 5.02 5.02 0 0 0-1.478-.139h-.509l-.007-.867a23.013 23.013 0 0 0 5.192-1.038l.416.002Zm-3.7-7.847a1.917 1.917 0 0 1 .565-1.4 1.863 1.863 0 0 1 1.379-.594 1.842 1.842 0 0 1 1.38.573 1.93 1.93 0 0 1 .575 1.39 1.96 1.96 0 0 1-.554 1.418 1.845 1.845 0 0 1-1.37.593 1.874 1.874 0 0 1-1.389-.573 1.942 1.942 0 0 1-.581-1.407h-.005ZM95.644 54.423h.509c.235.826.349 1.682.339 2.541a8.32 8.32 0 0 1 2.575-1.932 7.332 7.332 0 0 1 8.272 1.56 8.287 8.287 0 0 1 2.173 5.926 8.82 8.82 0 0 1-2.092 6.062 7.132 7.132 0 0 1-5.605 2.471 6.739 6.739 0 0 1-2.744-.553 8.419 8.419 0 0 1-2.491-1.686l.044 5.858c-.02 1.087.023 2.175.129 3.257a1.219 1.219 0 0 0 .6.872 3.94 3.94 0 0 0 1.829.278l.007.867-8.062.056-.007-.867h.565a2.69 2.69 0 0 0 1.74-.4c.26-.243.425-.572.463-.927.042-.357.056-1.396.043-3.117l-.105-14.014c-.012-1.644-.042-2.68-.09-3.108a1.308 1.308 0 0 0-.544-.974 3.018 3.018 0 0 0-1.679-.326h-.564l-.008-.867a31.199 31.199 0 0 0 4.703-.977Zm.928 13.142a7.535 7.535 0 0 0 2.171 1.858c.735.409 1.564.62 2.405.613a4.776 4.776 0 0 0 3.7-1.854c1.046-1.227 1.559-3.172 1.538-5.833a7.598 7.598 0 0 0-1.564-5.169 4.715 4.715 0 0 0-3.648-1.686 4.935 4.935 0 0 0-2.463.678 7.778 7.778 0 0 0-2.211 2.012l.072 9.381ZM112.663 70.835l-.038-5.066.735-.007c.875 2.92 2.412 4.371 4.611 4.355a2.603 2.603 0 0 0 2.131-.883c.449-.534.694-1.21.692-1.907a2.726 2.726 0 0 0-.769-1.973 12.157 12.157 0 0 0-3.008-1.841 11.522 11.522 0 0 1-3.371-2.236 3.808 3.808 0 0 1-1.037-2.686 4.627 4.627 0 0 1 1.071-2.918 3.68 3.68 0 0 1 3.059-1.408 4.104 4.104 0 0 1 3.348 1.614c.312-.42.555-.886.723-1.381h.7l.035 4.766-.7.005a6.5 6.5 0 0 0-1.482-2.938 3.302 3.302 0 0 0-2.561-1.214 2.472 2.472 0 0 0-1.822.711 2.224 2.224 0 0 0-.684 1.625 2.339 2.339 0 0 0 .784 1.746 10.415 10.415 0 0 0 2.895 1.692c2.143.952 3.456 1.885 3.939 2.8.455.818.708 1.733.737 2.669a4.31 4.31 0 0 1-1.3 3.287 4.653 4.653 0 0 1-3.334 1.287 5.073 5.073 0 0 1-3.8-1.722 4.226 4.226 0 0 0-.817 1.626l-.737-.003ZM140.611 54.707l.076 10.115c.012 1.683.045 2.737.1 3.163a1.263 1.263 0 0 0 .564.958c.537.255 1.133.36 1.725.306l.007.867a11.761 11.761 0 0 0-4.177.633h-.226a7.841 7.841 0 0 1-.667-3.574 8.372 8.372 0 0 1-2.608 2.714c-.979.61-2.109.93-3.262.927a5.231 5.231 0 0 1-2.736-.684 3.813 3.813 0 0 1-1.643-1.712 8.119 8.119 0 0 1-.466-3.066l-.039-5.255a31.017 31.017 0 0 0-.119-3.269 1.165 1.165 0 0 0-.6-.87 4.127 4.127 0 0 0-1.839-.269l-.007-.867 5.236-.04.081 10.7a9.98 9.98 0 0 0 .207 2.3c.161.519.506.961.969 1.245.529.358 1.156.54 1.794.523a4.675 4.675 0 0 0 2.762-.972 5.247 5.247 0 0 0 1.783-2.028c.358-.974.514-2.01.458-3.047l-.026-3.484c-.012-1.683-.039-2.706-.08-3.071a1.511 1.511 0 0 0-.488-.947 2.682 2.682 0 0 0-1.764-.392h-.4l-.006-.867 5.391-.037ZM149.345 54.02h.188a8.239 8.239 0 0 1 .57 3.233 9.13 9.13 0 0 1 2.7-2.448 6.354 6.354 0 0 1 3.13-.835 5.11 5.11 0 0 1 3.1.844 4.566 4.566 0 0 1 1.678 2.587 11.004 11.004 0 0 1 2.919-2.622 6.08 6.08 0 0 1 3.062-.89 5.35 5.35 0 0 1 3.04.806 3.308 3.308 0 0 1 1.521 1.873 15.58 15.58 0 0 1 .289 3.407l.035 4.634c-.02 1.094.022 2.188.128 3.276a1.183 1.183 0 0 0 .609.863c.591.23 1.226.32 1.858.267l.006.867-7.7.06-.006-.868a3.876 3.876 0 0 0 1.72-.286 1.167 1.167 0 0 0 .606-.834c.1-1.105.13-2.215.088-3.324l-.038-5.143c.013-.789-.054-1.577-.2-2.353a2.338 2.338 0 0 0-.944-1.35 3.185 3.185 0 0 0-1.962-.55 4.384 4.384 0 0 0-2.452.847 10.524 10.524 0 0 0-2.459 2.524l.047 6.085c.012 1.644.041 2.677.088 3.1a1.345 1.345 0 0 0 .536.976 2.85 2.85 0 0 0 1.65.336l.008.867-7.461.056-.006-.867c.599.037 1.2-.057 1.759-.276a1.17 1.17 0 0 0 .616-.815c.11-1.114.144-2.235.1-3.354l-.033-4.276c.016-.985-.045-1.97-.182-2.947a2.538 2.538 0 0 0-.981-1.556 3.122 3.122 0 0 0-2.021-.634 4.515 4.515 0 0 0-2.378.77 10.803 10.803 0 0 0-2.459 2.28l.049 6.423c.012 1.695.045 2.75.1 3.165a1.242 1.242 0 0 0 .571.937 3.43 3.43 0 0 0 1.755.307l.006.867-7.552.056-.007-.867a3.942 3.942 0 0 0 1.74-.286 1.164 1.164 0 0 0 .606-.823c.1-1.109.129-2.223.088-3.335l-.035-4.615c-.013-1.76-.049-2.836-.109-3.23a1.193 1.193 0 0 0-.591-.89 3.777 3.777 0 0 0-1.8-.289l-.007-.867c1.5-.133 2.981-.43 4.417-.884ZM160.132 36.467h-36.346V.122a36.346 36.346 0 0 1 36.346 36.345ZM50.041 36.467H31.868V18.294a18.173 18.173 0 1 1 18.173 18.173ZM114.234 36.467H77.888L77.766 0l24.937 24.936 11.531 11.531Z"/></g><defs><clipPath id="a"><path fill="#fff" d="M0 0h192v80H0z"/></clipPath></defs></svg>