<svg xmlns="http://www.w3.org/2000/svg" width="192" height="80" fill="none"><g fill="#fff" clip-path="url(#a)"><path d="M0 34.765V41.8a18.287 18.287 0 0 1 18.3 18.3h7.03A25.359 25.359 0 0 0 0 34.765ZM35.157 22.1H24.016A45.21 45.21 0 0 1 38 36.082v-11.14a2.843 2.843 0 0 0-2.843-2.842Z"/><path d="M7 22.1H0v6.334A31.7 31.7 0 0 1 31.667 60.1H38v-7a38.743 38.743 0 0 0-31-31ZM55.231 26.283h-4.462v22.49h4.462v-22.49ZM71.637 36.027a7.586 7.586 0 0 0-2.558-1.533 9.472 9.472 0 0 0-6.277 0 7.58 7.58 0 0 0-2.559 1.533 7.2 7.2 0 0 0-1.71 2.394 8.12 8.12 0 0 0 0 6.247 7.17 7.17 0 0 0 1.71 2.4A7.53 7.53 0 0 0 62.8 48.6a9.457 9.457 0 0 0 6.277 0 7.535 7.535 0 0 0 2.558-1.532 7.183 7.183 0 0 0 1.71-2.4 8.117 8.117 0 0 0 0-6.247 7.21 7.21 0 0 0-1.708-2.394Zm-3.064 8.166a3.934 3.934 0 0 1-5.266 0 4.21 4.21 0 0 1 0-5.3 3.934 3.934 0 0 1 5.266 0 4.21 4.21 0 0 1 0 5.3ZM87.656 36.22H87.6a4.551 4.551 0 0 0-.714-.788 5.177 5.177 0 0 0-1.07-.73 6.742 6.742 0 0 0-3.154-.743 5.856 5.856 0 0 0-2.766.64 6.554 6.554 0 0 0-2.068 1.681 7.636 7.636 0 0 0-1.309 2.41 8.717 8.717 0 0 0-.461 2.8 8.585 8.585 0 0 0 .506 3A6.878 6.878 0 0 0 78 46.854a6.49 6.49 0 0 0 2.249 1.545 7.448 7.448 0 0 0 2.915.55 6.141 6.141 0 0 0 2.156-.43 4.2 4.2 0 0 0 1.919-1.474h.06v1.4a3.5 3.5 0 0 1-.967 2.543 4.04 4.04 0 0 1-3.02 1 6.152 6.152 0 0 1-2.513-.506 9.325 9.325 0 0 1-2.187-1.368L76.143 53.8a8.61 8.61 0 0 0 3.451 1.681c1.249.287 2.527.432 3.808.431 2.816 0 4.913-.709 6.291-2.127 1.378-1.418 2.067-3.495 2.068-6.232V34.316h-4.1l-.005 1.904Zm-.268 6.59a3.479 3.479 0 0 1-.759 1.13c-.33.33-.719.597-1.145.788a3.463 3.463 0 0 1-2.811 0 3.929 3.929 0 0 1-1.131-.788 3.51 3.51 0 0 1 0-4.968c.328-.327.71-.594 1.131-.789a3.475 3.475 0 0 1 2.811 0c.426.192.814.46 1.145.79a3.528 3.528 0 0 1 .759 3.836ZM108.524 36.027a7.585 7.585 0 0 0-2.558-1.533 9.472 9.472 0 0 0-6.277 0 7.58 7.58 0 0 0-2.559 1.533 7.2 7.2 0 0 0-1.71 2.394 8.117 8.117 0 0 0 0 6.247c.398.91.98 1.727 1.71 2.4a7.529 7.529 0 0 0 2.559 1.532 9.457 9.457 0 0 0 6.277 0 7.536 7.536 0 0 0 2.558-1.532 7.174 7.174 0 0 0 1.71-2.4 8.11 8.11 0 0 0 0-6.247 7.193 7.193 0 0 0-1.71-2.394Zm-3.064 8.166a3.936 3.936 0 0 1-5.266 0 4.21 4.21 0 0 1 0-5.3 3.936 3.936 0 0 1 5.266 0 4.212 4.212 0 0 1 0 5.3ZM116.778 34.416h-2.393v14.357h2.393V34.416ZM115.582 27.054a1.666 1.666 0 0 0-1.243.521 1.75 1.75 0 1 0 2.485 0 1.662 1.662 0 0 0-1.242-.521ZM134.479 36.2a6.883 6.883 0 0 0-2.377-1.58 8.144 8.144 0 0 0-3.083-.568 6.376 6.376 0 0 0-2.869.645 7.056 7.056 0 0 0-2.286 1.81h-.064v-2.09h-2.39v21.351h2.39v-9.54h.061A5.476 5.476 0 0 0 126 48.3a6.635 6.635 0 0 0 3.389.844 7.077 7.077 0 0 0 2.823-.568 6.868 6.868 0 0 0 2.285-1.58 7.382 7.382 0 0 0 1.519-2.392 8.466 8.466 0 0 0 0-6.014 7.278 7.278 0 0 0-1.537-2.39Zm-.844 7.5A4.855 4.855 0 0 1 131 46.52a5.541 5.541 0 0 1-4.2 0 4.85 4.85 0 0 1-2.638-2.823 6.432 6.432 0 0 1 0-4.2 4.848 4.848 0 0 1 2.638-2.822 5.54 5.54 0 0 1 4.2 0 4.849 4.849 0 0 1 2.638 2.822c.47 1.36.47 2.84 0 4.2l-.003.003ZM148.622 41.6a5.246 5.246 0 0 0-1.5-.782c-.592-.2-1.197-.359-1.81-.476-.46-.079-.916-.18-1.365-.306a7.04 7.04 0 0 1-1.166-.43 2.573 2.573 0 0 1-.8-.568 1.122 1.122 0 0 1-.291-.782 1.512 1.512 0 0 1 .261-.874c.172-.255.397-.469.659-.629.281-.17.586-.294.906-.368a4.197 4.197 0 0 1 1-.123 3.341 3.341 0 0 1 1.825.476c.496.312.912.738 1.212 1.242l1.994-1.319a4.432 4.432 0 0 0-2.041-1.995 6.592 6.592 0 0 0-2.837-.613 7.002 7.002 0 0 0-1.963.276 6.025 6.025 0 0 0-1.719.8c-.504.34-.924.792-1.227 1.319a3.621 3.621 0 0 0-.46 1.84c-.025.63.118 1.255.414 1.811.27.465.647.86 1.1 1.15a6.25 6.25 0 0 0 1.61.721c.614.184 1.258.348 1.933.491.389.082.768.174 1.135.276.345.093.675.232.982.414.27.16.505.374.69.629.184.282.276.614.261.951.011.354-.085.702-.276 1-.19.282-.442.518-.736.69-.318.19-.665.325-1.028.4-.368.08-.743.122-1.12.123a3.987 3.987 0 0 1-2.132-.522A6.01 6.01 0 0 1 140.584 45l-1.9 1.473a5.75 5.75 0 0 0 2.408 2.1c1.009.4 2.089.594 3.175.568.707 0 1.412-.082 2.1-.245a5.753 5.753 0 0 0 1.841-.782 4.076 4.076 0 0 0 1.3-1.4 4.149 4.149 0 0 0 .492-2.082 4.029 4.029 0 0 0-.368-1.809 3.481 3.481 0 0 0-1.01-1.223ZM165.862 45.368V34.416h-2.393v7a8.945 8.945 0 0 1-.261 2.24 5.093 5.093 0 0 1-.8 1.748 3.56 3.56 0 0 1-1.381 1.135 4.664 4.664 0 0 1-2.009.4 2.933 2.933 0 0 1-2.485-1.043 4.589 4.589 0 0 1-.8-2.853v-8.627h-2.393v8.866a8.379 8.379 0 0 0 .322 2.377c.192.685.534 1.32 1 1.857a4.557 4.557 0 0 0 1.7 1.2 6.31 6.31 0 0 0 2.439.43 5.723 5.723 0 0 0 3.037-.844 4.995 4.995 0 0 0 1.058-.874c.279-.301.512-.643.691-1.013h.061c0 .41.01.81.031 1.2.021.39.031.779.03 1.166h2.271c0-.471-.021-.993-.062-1.565a23.894 23.894 0 0 1-.056-1.848ZM191.724 37.561a4.733 4.733 0 0 0-.921-1.9 4.095 4.095 0 0 0-1.687-1.2 7.018 7.018 0 0 0-2.577-.414 4.658 4.658 0 0 0-2.7.721 6.618 6.618 0 0 0-1.84 2.01 11.107 11.107 0 0 0-.476-.844 3.462 3.462 0 0 0-.813-.89 4.747 4.747 0 0 0-1.3-.7 5.637 5.637 0 0 0-1.949-.292 5.714 5.714 0 0 0-3.037.844 5.007 5.007 0 0 0-1.058.874 4.12 4.12 0 0 0-.69 1.013h-.062c0-.41-.01-.808-.03-1.2-.02-.392-.031-.777-.031-1.166h-2.27c0 .471.02.993.061 1.565.041.572.061 1.186.061 1.841v10.951h2.395V41.78a8.953 8.953 0 0 1 .261-2.24 5.069 5.069 0 0 1 .8-1.749c.356-.49.831-.88 1.38-1.135a4.663 4.663 0 0 1 2.01-.4 2.329 2.329 0 0 1 2.116 1 6.56 6.56 0 0 1 .645 3.39v8.13h2.388V40.49a4.943 4.943 0 0 1 .292-1.733c.177-.492.449-.945.8-1.334a3.616 3.616 0 0 1 1.181-.859 3.45 3.45 0 0 1 1.442-.307 3.838 3.838 0 0 1 1.718.337 2.9 2.9 0 0 1 1.073.891c.27.376.458.804.553 1.257.102.474.154.957.153 1.442v8.59H192v-8.713c.009-.841-.084-1.68-.276-2.5Z"/></g><defs><clipPath id="a"><path fill="#fff" d="M0 0h192v80H0z"/></clipPath></defs></svg>