<svg xmlns="http://www.w3.org/2000/svg" width="192" height="80" fill="none"><g fill="#fff" clip-path="url(#a)"><path d="M28.903 8H0v28.903h28.903V8ZM35.1 8v28.9H64A28.9 28.9 0 0 0 35.1 8ZM14.452 43.1A14.45 14.45 0 0 0 0 57.548V72h14.452a14.452 14.452 0 0 0 0-28.9ZM35 43l.097 29H64l-9.17-9.17L35 43ZM82.033 33.828a4 4 0 0 1-1.119.433 5.46 5.46 0 0 1-3.648-.416 5.178 5.178 0 0 1-1.936-1.584l-3.553 3.9A10.25 10.25 0 0 0 75.3 38.34c2.403.813 4.993.891 7.44.224a8.067 8.067 0 0 0 2.784-1.376 6.7 6.7 0 0 0 1.905-2.335 7.29 7.29 0 0 0 .7-3.3 5.75 5.75 0 0 0-.768-3.168 5.963 5.963 0 0 0-1.935-1.885 10.398 10.398 0 0 0-2.512-1.088 68.838 68.838 0 0 1-2.513-.767 7.287 7.287 0 0 1-1.936-.93 1.99 1.99 0 0 1-.447-2.654 2.35 2.35 0 0 1 .832-.721 4.259 4.259 0 0 1 1.088-.4 5.16 5.16 0 0 1 1.12-.128 5.91 5.91 0 0 1 1.967.369c.647.213 1.22.607 1.649 1.135l3.426-3.744a8.584 8.584 0 0 0-3.233-1.824 12.729 12.729 0 0 0-3.712-.544 11.338 11.338 0 0 0-3.231.464 8.334 8.334 0 0 0-2.769 1.393 6.958 6.958 0 0 0-1.92 2.3 6.822 6.822 0 0 0-.719 3.2A5.308 5.308 0 0 0 73.3 25.6a6.176 6.176 0 0 0 1.969 1.856 11.4 11.4 0 0 0 2.559 1.12c.917.277 1.77.555 2.56.832a7.237 7.237 0 0 1 1.969 1.008 1.918 1.918 0 0 1 .783 1.616c.01.374-.095.743-.3 1.056a2.401 2.401 0 0 1-.807.74ZM96.226 38.437h4.991V20.196h6.464V15.78h-17.92v4.416h6.465v18.241ZM115.616 38.309c2.683.939 5.605.939 8.288 0a8.274 8.274 0 0 0 2.992-1.953 8.163 8.163 0 0 0 1.808-2.944 10.93 10.93 0 0 0 .608-3.712V15.78h-4.992v13.728a5.506 5.506 0 0 1-.336 1.952 4.656 4.656 0 0 1-.944 1.553 4.32 4.32 0 0 1-1.439 1.023 4.455 4.455 0 0 1-1.825.368 4.552 4.552 0 0 1-1.839-.368 4.289 4.289 0 0 1-1.457-1.023 4.681 4.681 0 0 1-.944-1.553 5.506 5.506 0 0 1-.336-1.952V15.78h-4.992V29.7a10.93 10.93 0 0 0 .608 3.712 8.167 8.167 0 0 0 1.808 2.944 8.297 8.297 0 0 0 2.992 1.953ZM146.913 37.7a12.369 12.369 0 0 0 4.065-2.16 10.426 10.426 0 0 0 2.8-3.519 10.776 10.776 0 0 0 1.04-4.849 11.844 11.844 0 0 0-1.072-5.279 9.652 9.652 0 0 0-2.9-3.537 11.846 11.846 0 0 0-4.273-1.967 21.335 21.335 0 0 0-5.168-.609h-7.488v22.657h8.16a15.765 15.765 0 0 0 4.836-.737Zm-8-3.872V20.389h2.944c1.011-.005 2.018.13 2.993.4a7.397 7.397 0 0 1 2.479 1.2 5.787 5.787 0 0 1 1.68 2.033c.434.902.648 1.894.624 2.895a7.598 7.598 0 0 1-.624 3.248 5.598 5.598 0 0 1-1.712 2.145 6.887 6.887 0 0 1-2.576 1.168 13.987 13.987 0 0 1-3.216.351l-2.592-.001ZM163.137 15.78h-4.992v22.656h4.992V15.78ZM190 22.181a10.802 10.802 0 0 0-2.544-3.76 11.228 11.228 0 0 0-3.872-2.385 14.822 14.822 0 0 0-9.792 0 11.228 11.228 0 0 0-3.872 2.384 10.802 10.802 0 0 0-2.544 3.761 12.784 12.784 0 0 0-.912 4.927 12.79 12.79 0 0 0 .912 4.928 10.798 10.798 0 0 0 2.544 3.76 11.212 11.212 0 0 0 3.872 2.385 14.822 14.822 0 0 0 9.792 0 11.212 11.212 0 0 0 3.872-2.385 10.798 10.798 0 0 0 2.544-3.76 12.79 12.79 0 0 0 .912-4.928 12.784 12.784 0 0 0-.912-4.927Zm-4.768 7.855a6.697 6.697 0 0 1-1.424 2.3 6.496 6.496 0 0 1-2.224 1.52 7.98 7.98 0 0 1-5.792 0 6.486 6.486 0 0 1-2.224-1.52 6.697 6.697 0 0 1-1.424-2.3 8.847 8.847 0 0 1 0-5.84 6.672 6.672 0 0 1 1.424-2.32 6.533 6.533 0 0 1 2.224-1.52 7.98 7.98 0 0 1 5.792 0 6.533 6.533 0 0 1 2.224 1.52 6.672 6.672 0 0 1 1.424 2.32 8.847 8.847 0 0 1 0 5.84ZM89.313 43.083H71.394v4.416h6.463v18.24h4.993v-18.24h6.463v-4.416ZM96.354 43.083l-9.792 22.656h5.5l1.889-4.8h8.8l1.952 4.8h5.632l-9.857-22.656h-4.124Zm-.833 13.632 2.752-7.04 2.785 7.04h-5.537ZM129.089 58.827h-.065l-9.631-15.744h-6.785v22.656h4.993V49.611h.064l9.888 16.128h6.528V43.083h-4.992v15.744ZM146.145 43.083l-9.792 22.656h5.5l1.889-4.8h8.8l1.952 4.8h5.632l-9.857-22.656h-4.124Zm-.833 13.632 2.752-7.04 2.785 7.04h-5.537ZM177.089 51.531h-9.696v-8.448H162.4v22.656h4.993v-9.792h9.696v9.792h4.992V43.083h-4.992v8.448Z"/></g><defs><clipPath id="a"><path fill="#fff" d="M0 0h192v80H0z"/></clipPath></defs></svg>